<svg xmlns="http://www.w3.org/2000/svg" viewBox="0 0 308.91 241.83"><defs><style>.cls-1{fill:#eedf21;}.cls-2{fill:#d82929;}.cls-3{fill:#008242;}</style></defs><g id="Layer_2" data-name="Layer 2"><g id="Layer_1-2" data-name="Layer 1"><path d="M252.28,65.51,174.77,176a35.48,35.48,0,0,1,6.1,5.23L259.35,69.35A35.5,35.5,0,0,1,252.28,65.51Zm-195.51-.1a35.74,35.74,0,0,1-7.05,3.88l78.53,112a35.48,35.48,0,0,1,6.1-5.23ZM71,27.68a36.34,36.34,0,0,1,1,8H236.91a36.34,36.34,0,0,1,1-8Z"/><path d="M71,27.68A36,36,0,1,0,72,36v-.32A36.34,36.34,0,0,0,71,27.68ZM53.32,60.49a30,30,0,1,1,11.5-32.81,29.3,29.3,0,0,1,1.17,8c0,.11,0,.21,0,.32A29.94,29.94,0,0,1,53.32,60.49Z"/><path class="cls-1" d="M66,36a30,30,0,1,1-1.18-8.32,29.3,29.3,0,0,1,1.17,8C66,35.79,66,35.89,66,36Z"/><path d="M180.87,181.27a36,36,0,0,0-62.31,24.56,36,36,0,1,0,62.31-24.56Zm-26.31,54.56a30,30,0,0,1-22.77-49.51,29.51,29.51,0,0,1,6-5.37,30,30,0,1,1,16.77,54.88Z"/><path class="cls-2" d="M184.56,205.83a30,30,0,1,1-52.77-19.51,29.51,29.51,0,0,1,6-5.37,30,30,0,0,1,46.77,24.88Z"/><path d="M272.91,0a36,36,0,0,0-36,35.68V36a36,36,0,0,0,15.37,29.51A36.06,36.06,0,0,0,272.91,72a36,36,0,0,0,0-72Zm0,66a29.65,29.65,0,0,1-10-1.72,29.31,29.31,0,0,1-7.17-3.69h0A29.92,29.92,0,0,1,242.91,36c0-.11,0-.21,0-.32a29.3,29.3,0,0,1,1.17-8A30,30,0,1,1,272.91,66Z"/><path class="cls-3" d="M302.91,36a30,30,0,0,1-30,30,29.65,29.65,0,0,1-10-1.72,29.31,29.31,0,0,1-7.17-3.69h0A29.92,29.92,0,0,1,242.91,36c0-.11,0-.21,0-.32a29.3,29.3,0,0,1,1.17-8A30,30,0,0,1,302.91,36Z"/></g></g></svg>
